# Blender 3.3.1
# www.blender.org
o cylinder
v -0.000000 -0.999999 -1.000000
v -0.000000 1.000001 -1.000000
v 0.089639 -0.999999 -0.995974
v 0.089639 1.000001 -0.995974
v 0.178557 -0.999999 -0.983929
v 0.178557 1.000001 -0.983929
v 0.266037 -0.999999 -0.963963
v 0.266037 1.000001 -0.963963
v 0.351375 -0.999999 -0.936235
v 0.351375 1.000001 -0.936235
v 0.433884 -0.999999 -0.900969
v 0.433884 1.000001 -0.900969
v 0.512899 -0.999999 -0.858449
v 0.512899 1.000001 -0.858449
v 0.587785 -0.999999 -0.809017
v 0.587785 1.000001 -0.809017
v 0.657938 -0.999999 -0.753071
v 0.657938 1.000001 -0.753071
v 0.722795 -0.999999 -0.691062
v 0.722795 1.000001 -0.691062
v 0.781831 -0.999999 -0.623489
v 0.781831 1.000001 -0.623489
v 0.834573 -0.999999 -0.550897
v 0.834573 1.000001 -0.550897
v 0.880595 -0.999999 -0.473868
v 0.880595 1.000001 -0.473868
v 0.919528 -0.999999 -0.393025
v 0.919528 1.000001 -0.393025
v 0.951056 -0.999999 -0.309017
v 0.951056 1.000001 -0.309017
v 0.974928 -0.999999 -0.222521
v 0.974928 1.000001 -0.222521
v 0.990950 -0.999999 -0.134233
v 0.990950 1.000001 -0.134233
v 0.998993 -0.999999 -0.044865
v 0.998993 1.000001 -0.044865
v 0.998993 -0.999999 0.044865
v 0.998993 1.000001 0.044865
v 0.990950 -0.999999 0.134234
v 0.990950 1.000001 0.134234
v 0.974928 -0.999999 0.222521
v 0.974928 1.000001 0.222521
v 0.951056 -0.999999 0.309017
v 0.951056 1.000001 0.309017
v 0.919528 -0.999999 0.393025
v 0.919528 1.000001 0.393025
v 0.880595 -0.999999 0.473869
v 0.880595 1.000001 0.473869
v 0.834573 -0.999999 0.550897
v 0.834573 1.000001 0.550897
v 0.781831 -0.999999 0.623490
v 0.781831 1.000001 0.623490
v 0.722795 -0.999999 0.691063
v 0.722795 1.000001 0.691063
v 0.657938 -0.999999 0.753072
v 0.657938 1.000001 0.753072
v 0.587785 -0.999999 0.809017
v 0.587785 1.000001 0.809017
v 0.512899 -0.999999 0.858449
v 0.512899 1.000001 0.858449
v 0.433884 -0.999999 0.900969
v 0.433884 1.000001 0.900969
v 0.351375 -0.999999 0.936235
v 0.351375 1.000001 0.936235
v 0.266037 -0.999999 0.963963
v 0.266037 1.000001 0.963963
v 0.178557 -0.999999 0.983930
v 0.178557 1.000001 0.983930
v 0.089639 -0.999999 0.995975
v 0.089639 1.000001 0.995975
v -0.000000 -0.999999 1.000000
v -0.000000 1.000001 1.000000
v -0.089640 -0.999999 0.995975
v -0.089640 1.000001 0.995975
v -0.178557 -0.999999 0.983930
v -0.178557 1.000001 0.983930
v -0.266037 -0.999999 0.963963
v -0.266037 1.000001 0.963963
v -0.351375 -0.999999 0.936235
v -0.351375 1.000001 0.936235
v -0.433884 -0.999999 0.900969
v -0.433884 1.000001 0.900969
v -0.512900 -0.999999 0.858449
v -0.512900 1.000001 0.858449
v -0.587785 -0.999999 0.809017
v -0.587785 1.000001 0.809017
v -0.657939 -0.999999 0.753072
v -0.657939 1.000001 0.753072
v -0.722795 -0.999999 0.691063
v -0.722795 1.000001 0.691063
v -0.781832 -0.999999 0.623490
v -0.781832 1.000001 0.623490
v -0.834574 -0.999999 0.550897
v -0.834574 1.000001 0.550897
v -0.880596 -0.999999 0.473869
v -0.880596 1.000001 0.473869
v -0.919528 -0.999999 0.393025
v -0.919528 1.000001 0.393025
v -0.951057 -0.999999 0.309017
v -0.951057 1.000001 0.309017
v -0.974928 -0.999999 0.222521
v -0.974928 1.000001 0.222521
v -0.990950 -0.999999 0.134234
v -0.990950 1.000001 0.134234
v -0.998993 -0.999999 0.044865
v -0.998993 1.000001 0.044865
v -0.998993 -0.999999 -0.044865
v -0.998993 1.000001 -0.044865
v -0.990950 -0.999999 -0.134233
v -0.990950 1.000001 -0.134233
v -0.974928 -0.999999 -0.222521
v -0.974928 1.000001 -0.222521
v -0.951057 -0.999999 -0.309017
v -0.951057 1.000001 -0.309017
v -0.919528 -0.999999 -0.393025
v -0.919528 1.000001 -0.393025
v -0.880596 -0.999999 -0.473868
v -0.880596 1.000001 -0.473868
v -0.834574 -0.999999 -0.550897
v -0.834574 1.000001 -0.550897
v -0.781832 -0.999999 -0.623489
v -0.781832 1.000001 -0.623489
v -0.722795 -0.999999 -0.691062
v -0.722795 1.000001 -0.691062
v -0.657939 -0.999999 -0.753071
v -0.657939 1.000001 -0.753071
v -0.587785 -0.999999 -0.809017
v -0.587785 1.000001 -0.809017
v -0.512900 -0.999999 -0.858449
v -0.512900 1.000001 -0.858449
v -0.433884 -0.999999 -0.900969
v -0.433884 1.000001 -0.900969
v -0.351375 -0.999999 -0.936235
v -0.351375 1.000001 -0.936235
v -0.266037 -0.999999 -0.963963
v -0.266037 1.000001 -0.963963
v -0.178557 -0.999999 -0.983929
v -0.178557 1.000001 -0.983929
v -0.089640 -0.999999 -0.995974
v -0.089640 1.000001 -0.995974
vn 0.3090 -0.0000 0.9511
vn 0.3930 -0.0000 0.9195
vn 0.4739 -0.0000 0.8806
vn 0.5509 -0.0000 0.8346
vn 0.6235 -0.0000 0.7818
vn 0.6911 -0.0000 0.7228
vn 0.7531 -0.0000 0.6579
vn 0.8090 -0.0000 0.5878
vn 0.8584 -0.0000 0.5129
vn 0.9010 -0.0000 0.4339
vn 0.9362 -0.0000 0.3514
vn 0.9640 -0.0000 0.2660
vn 0.9839 -0.0000 0.1786
vn 0.9960 -0.0000 0.0896
vn 1.0000 -0.0000 -0.0000
vn 0.9960 -0.0000 -0.0896
vn -0.3930 -0.0000 -0.9195
vn -0.4739 -0.0000 -0.8806
vn -0.5509 -0.0000 -0.8346
vn -0.6235 -0.0000 -0.7818
vn -0.6911 -0.0000 -0.7228
vn -0.7531 -0.0000 -0.6579
vn -0.8090 -0.0000 -0.5878
vn -0.8584 -0.0000 -0.5129
vn -0.9010 -0.0000 -0.4339
vn -0.9362 -0.0000 -0.3514
vn -0.9640 -0.0000 -0.2660
vn -0.9839 -0.0000 -0.1786
vn -0.9960 -0.0000 -0.0896
vn -1.0000 -0.0000 -0.0000
vn -0.9960 -0.0000 0.0896
vn -0.9839 -0.0000 0.1786
vn -0.9640 -0.0000 0.2660
vn -0.9362 -0.0000 0.3514
vn 0.9839 -0.0000 -0.1786
vn 0.9640 -0.0000 -0.2660
vn 0.9362 -0.0000 -0.3514
vn 0.9010 -0.0000 -0.4339
vn 0.8584 -0.0000 -0.5129
vn 0.8090 -0.0000 -0.5878
vn 0.7531 -0.0000 -0.6579
vn -0.9010 -0.0000 0.4339
vn -0.8584 -0.0000 0.5129
vn -0.8090 -0.0000 0.5878
vn -0.7531 -0.0000 0.6579
vn -0.6911 -0.0000 0.7228
vn -0.6235 -0.0000 0.7818
vn -0.5509 -0.0000 0.8346
vn -0.4739 -0.0000 0.8806
vn -0.3930 -0.0000 0.9195
vn -0.3090 -0.0000 0.9511
vn -0.2225 -0.0000 0.9749
vn -0.1342 -0.0000 0.9909
vn -0.0449 -0.0000 0.9990
vn 0.0449 -0.0000 0.9990
vn 0.1342 -0.0000 0.9909
vn 0.2225 -0.0000 0.9749
vn 0.6911 -0.0000 -0.7228
vn 0.6235 -0.0000 -0.7818
vn 0.5509 -0.0000 -0.8346
vn 0.4739 -0.0000 -0.8806
vn 0.3930 -0.0000 -0.9195
vn 0.3090 -0.0000 -0.9511
vn 0.2225 -0.0000 -0.9749
vn 0.1342 -0.0000 -0.9909
vn 0.0449 -0.0000 -0.9990
vn -0.0449 -0.0000 -0.9990
vn -0.1342 -0.0000 -0.9909
vn -0.3090 -0.0000 -0.9511
vn -0.2225 -0.0000 -0.9749
vn -0.0000 1.0000 -0.0000
vn -0.0000 -1.0000 -0.0000
vt 1.000000 0.500000
vt -0.000001 0.500000
vt 0.750000 0.490000
vt 1.000000 1.000000
vt -0.000001 1.000000
vt 0.250000 0.490000
vt 0.985714 0.500000
vt 0.771513 0.489034
vt 0.985714 1.000000
vt 0.271513 0.489034
vt 0.971429 0.500000
vt 0.792854 0.486143
vt 0.971429 1.000000
vt 0.292854 0.486143
vt 0.957143 0.500000
vt 0.813849 0.481351
vt 0.957143 1.000000
vt 0.313849 0.481351
vt 0.942857 0.500000
vt 0.834330 0.474696
vt 0.942857 1.000000
vt 0.334330 0.474696
vt 0.928571 0.500000
vt 0.854132 0.466233
vt 0.928571 1.000000
vt 0.354132 0.466233
vt 0.914286 0.500000
vt 0.873096 0.456028
vt 0.914286 1.000000
vt 0.373096 0.456028
vt 0.900000 0.500000
vt 0.891068 0.444164
vt 0.900000 1.000000
vt 0.391068 0.444164
vt 0.885714 0.500000
vt 0.907905 0.430737
vt 0.885714 1.000000
vt 0.407905 0.430737
vt 0.871428 0.500000
vt 0.923471 0.415855
vt 0.871428 1.000000
vt 0.423471 0.415855
vt 0.857143 0.500000
vt 0.937640 0.399638
vt 0.857143 1.000000
vt 0.437640 0.399638
vt 0.842857 0.500000
vt 0.950298 0.382215
vt 0.842857 1.000000
vt 0.450298 0.382215
vt 0.828571 0.500000
vt 0.961343 0.363728
vt 0.828571 1.000000
vt 0.461343 0.363728
vt 0.814285 0.500000
vt 0.970687 0.344326
vt 0.814285 1.000000
vt 0.470687 0.344326
vt 0.800000 0.500000
vt 0.978254 0.324164
vt 0.800000 1.000000
vt 0.478254 0.324164
vt 0.785714 0.500000
vt 0.983983 0.303405
vt 0.785714 1.000000
vt 0.483983 0.303405
vt 0.771428 0.500000
vt 0.987828 0.282216
vt 0.771428 1.000000
vt 0.487828 0.282216
vt 0.757142 0.500000
vt 0.989758 0.260768
vt 0.757142 1.000000
vt 0.489758 0.260768
vt 0.742857 0.500000
vt 0.989758 0.239232
vt 0.742857 1.000000
vt 0.489758 0.239232
vt 0.728571 0.500000
vt 0.987828 0.217784
vt 0.728571 1.000000
vt 0.487828 0.217784
vt 0.714285 0.500000
vt 0.983983 0.196595
vt 0.714285 1.000000
vt 0.483983 0.196595
vt 0.699999 0.500000
vt 0.978254 0.175836
vt 0.699999 1.000000
vt 0.478254 0.175836
vt 0.685714 0.500000
vt 0.970687 0.155674
vt 0.685714 1.000000
vt 0.470687 0.155674
vt 0.671428 0.500000
vt 0.961343 0.136272
vt 0.671428 1.000000
vt 0.461343 0.136272
vt 0.657142 0.500000
vt 0.950298 0.117785
vt 0.657142 1.000000
vt 0.450298 0.117785
vt 0.642856 0.500000
vt 0.937640 0.100362
vt 0.642856 1.000000
vt 0.437640 0.100362
vt 0.628571 0.500000
vt 0.923471 0.084145
vt 0.628571 1.000000
vt 0.423471 0.084145
vt 0.614285 0.500000
vt 0.907905 0.069263
vt 0.614285 1.000000
vt 0.407905 0.069263
vt 0.599999 0.500000
vt 0.891068 0.055836
vt 0.599999 1.000000
vt 0.391068 0.055836
vt 0.585713 0.500000
vt 0.873096 0.043972
vt 0.585713 1.000000
vt 0.373096 0.043972
vt 0.571428 0.500000
vt 0.854132 0.033767
vt 0.571428 1.000000
vt 0.354132 0.033767
vt 0.557142 0.500000
vt 0.834330 0.025304
vt 0.557142 1.000000
vt 0.334330 0.025304
vt 0.542856 0.500000
vt 0.813849 0.018649
vt 0.542856 1.000000
vt 0.313849 0.018649
vt 0.528570 0.500000
vt 0.792854 0.013857
vt 0.528570 1.000000
vt 0.292854 0.013857
vt 0.514285 0.500000
vt 0.771513 0.010966
vt 0.514285 1.000000
vt 0.271513 0.010966
vt 0.499999 0.500000
vt 0.750000 0.010000
vt 0.499999 1.000000
vt 0.250000 0.010000
vt 0.485713 0.500000
vt 0.728487 0.010966
vt 0.485713 1.000000
vt 0.228487 0.010966
vt 0.471428 0.500000
vt 0.707146 0.013857
vt 0.471428 1.000000
vt 0.207146 0.013857
vt 0.457142 0.500000
vt 0.686151 0.018649
vt 0.457142 1.000000
vt 0.186151 0.018649
vt 0.442856 0.500000
vt 0.665670 0.025304
vt 0.442856 1.000000
vt 0.165670 0.025304
vt 0.428570 0.500000
vt 0.645868 0.033767
vt 0.428570 1.000000
vt 0.145868 0.033767
vt 0.414285 0.500000
vt 0.626904 0.043972
vt 0.414285 1.000000
vt 0.126904 0.043972
vt 0.399999 0.500000
vt 0.608932 0.055836
vt 0.399999 1.000000
vt 0.108932 0.055836
vt 0.385713 0.500000
vt 0.592095 0.069263
vt 0.385713 1.000000
vt 0.092095 0.069263
vt 0.371428 0.500000
vt 0.576529 0.084145
vt 0.371428 1.000000
vt 0.076529 0.084145
vt 0.357142 0.500000
vt 0.562360 0.100362
vt 0.357142 1.000000
vt 0.062360 0.100362
vt 0.342856 0.500000
vt 0.549702 0.117785
vt 0.342856 1.000000
vt 0.049702 0.117785
vt 0.328570 0.500000
vt 0.538657 0.136272
vt 0.328570 1.000000
vt 0.038657 0.136272
vt 0.314285 0.500000
vt 0.529313 0.155674
vt 0.314285 1.000000
vt 0.029313 0.155674
vt 0.299999 0.500000
vt 0.521746 0.175836
vt 0.299999 1.000000
vt 0.021746 0.175836
vt 0.285713 0.500000
vt 0.516017 0.196595
vt 0.285713 1.000000
vt 0.016017 0.196595
vt 0.271428 0.500000
vt 0.512172 0.217784
vt 0.271428 1.000000
vt 0.012172 0.217784
vt 0.257142 0.500000
vt 0.510242 0.239232
vt 0.257142 1.000000
vt 0.010242 0.239232
vt 0.242856 0.500000
vt 0.510242 0.260768
vt 0.242856 1.000000
vt 0.010242 0.260768
vt 0.228570 0.500000
vt 0.512172 0.282216
vt 0.228570 1.000000
vt 0.012172 0.282216
vt 0.214285 0.500000
vt 0.516017 0.303405
vt 0.214285 1.000000
vt 0.016017 0.303405
vt 0.199999 0.500000
vt 0.521746 0.324164
vt 0.199999 1.000000
vt 0.021746 0.324164
vt 0.185713 0.500000
vt 0.529313 0.344326
vt 0.185713 1.000000
vt 0.029313 0.344326
vt 0.171428 0.500000
vt 0.538657 0.363728
vt 0.171428 1.000000
vt 0.038657 0.363728
vt 0.157142 0.500000
vt 0.549702 0.382215
vt 0.157142 1.000000
vt 0.049702 0.382215
vt 0.142856 0.500000
vt 0.562360 0.399638
vt 0.142856 1.000000
vt 0.062360 0.399638
vt 0.128570 0.500000
vt 0.576529 0.415855
vt 0.128570 1.000000
vt 0.076529 0.415855
vt 0.114285 0.500000
vt 0.592095 0.430737
vt 0.114285 1.000000
vt 0.092095 0.430737
vt 0.099999 0.500000
vt 0.608932 0.444164
vt 0.099999 1.000000
vt 0.108932 0.444164
vt 0.085713 0.500000
vt 0.626904 0.456028
vt 0.085713 1.000000
vt 0.126904 0.456028
vt 0.071428 0.500000
vt 0.645868 0.466233
vt 0.071428 1.000000
vt 0.145868 0.466233
vt 0.057142 0.500000
vt 0.665670 0.474696
vt 0.057142 1.000000
vt 0.165670 0.474696
vt 0.042856 0.500000
vt 0.686151 0.481351
vt 0.042856 1.000000
vt 0.186151 0.481351
vt 0.028570 0.500000
vt 0.707146 0.486143
vt 0.028570 1.000000
vt 0.207146 0.486143
vt 0.014285 0.500000
vt 0.728487 0.489034
vt 0.014285 1.000000
vt 0.228487 0.489034
s 0
f 64/129/1 66/133/1 65/131/1
f 62/125/2 64/129/2 63/127/2
f 60/121/3 62/125/3 61/123/3
f 58/117/4 60/121/4 59/119/4
f 56/113/5 58/117/5 57/115/5
f 54/109/6 56/113/6 55/111/6
f 52/105/7 54/109/7 53/107/7
f 50/101/8 52/105/8 51/103/8
f 48/97/9 50/101/9 49/99/9
f 46/93/10 48/97/10 47/95/10
f 44/89/11 46/93/11 45/91/11
f 42/85/12 44/89/12 43/87/12
f 40/81/13 42/85/13 41/83/13
f 38/77/14 40/81/14 39/79/14
f 36/73/15 38/77/15 37/75/15
f 34/69/16 36/73/16 35/71/16
f 132/265/17 134/269/17 133/267/17
f 130/261/18 132/265/18 131/263/18
f 128/257/19 130/261/19 129/259/19
f 126/253/20 128/257/20 127/255/20
f 124/249/21 126/253/21 125/251/21
f 122/245/22 124/249/22 123/247/22
f 120/241/23 122/245/23 121/243/23
f 118/237/24 120/241/24 119/239/24
f 116/233/25 118/237/25 117/235/25
f 114/229/26 116/233/26 115/231/26
f 112/225/27 114/229/27 113/227/27
f 110/221/28 112/225/28 111/223/28
f 108/217/29 110/221/29 109/219/29
f 106/213/30 108/217/30 107/215/30
f 104/209/31 106/213/31 105/211/31
f 102/205/32 104/209/32 103/207/32
f 100/201/33 102/205/33 101/203/33
f 98/197/34 100/201/34 99/199/34
f 32/65/35 34/69/35 33/67/35
f 30/61/36 32/65/36 31/63/36
f 28/57/37 30/61/37 29/59/37
f 26/53/38 28/57/38 27/55/38
f 24/49/39 26/53/39 25/51/39
f 22/45/40 24/49/40 23/47/40
f 20/41/41 22/45/41 21/43/41
f 96/193/42 98/197/42 97/195/42
f 94/189/43 96/193/43 95/191/43
f 92/185/44 94/189/44 93/187/44
f 90/181/45 92/185/45 91/183/45
f 88/177/46 90/181/46 89/179/46
f 86/173/47 88/177/47 87/175/47
f 84/169/48 86/173/48 85/171/48
f 82/165/49 84/169/49 83/167/49
f 80/161/50 82/165/50 81/163/50
f 78/157/51 80/161/51 79/159/51
f 76/153/52 78/157/52 77/155/52
f 74/149/53 76/153/53 75/151/53
f 72/145/54 74/149/54 73/147/54
f 70/141/55 72/145/55 71/143/55
f 68/137/56 70/141/56 69/139/56
f 66/133/57 68/137/57 67/135/57
f 18/37/58 20/41/58 19/39/58
f 16/33/59 18/37/59 17/35/59
f 14/29/60 16/33/60 15/31/60
f 12/25/61 14/29/61 13/27/61
f 10/21/62 12/25/62 11/23/62
f 8/17/63 10/21/63 9/19/63
f 6/13/64 8/17/64 7/15/64
f 4/9/65 6/13/65 5/11/65
f 2/4/66 4/9/66 3/7/66
f 2/4/66 3/7/66 1/1/66
f 4/9/65 5/11/65 3/7/65
f 6/13/64 7/15/64 5/11/64
f 8/17/63 9/19/63 7/15/63
f 10/21/62 11/23/62 9/19/62
f 12/25/61 13/27/61 11/23/61
f 14/29/60 15/31/60 13/27/60
f 16/33/59 17/35/59 15/31/59
f 18/37/58 19/39/58 17/35/58
f 20/41/41 21/43/41 19/39/41
f 22/45/40 23/47/40 21/43/40
f 24/49/39 25/51/39 23/47/39
f 26/53/38 27/55/38 25/51/38
f 28/57/37 29/59/37 27/55/37
f 30/61/36 31/63/36 29/59/36
f 32/65/35 33/67/35 31/63/35
f 34/69/16 35/71/16 33/67/16
f 36/73/15 37/75/15 35/71/15
f 38/77/14 39/79/14 37/75/14
f 40/81/13 41/83/13 39/79/13
f 42/85/12 43/87/12 41/83/12
f 44/89/11 45/91/11 43/87/11
f 46/93/10 47/95/10 45/91/10
f 48/97/9 49/99/9 47/95/9
f 50/101/8 51/103/8 49/99/8
f 52/105/7 53/107/7 51/103/7
f 54/109/6 55/111/6 53/107/6
f 56/113/5 57/115/5 55/111/5
f 58/117/4 59/119/4 57/115/4
f 60/121/3 61/123/3 59/119/3
f 62/125/2 63/127/2 61/123/2
f 64/129/1 65/131/1 63/127/1
f 66/133/57 67/135/57 65/131/57
f 68/137/56 69/139/56 67/135/56
f 70/141/55 71/143/55 69/139/55
f 72/145/54 73/147/54 71/143/54
f 74/149/53 75/151/53 73/147/53
f 76/153/52 77/155/52 75/151/52
f 78/157/51 79/159/51 77/155/51
f 80/161/50 81/163/50 79/159/50
f 82/165/49 83/167/49 81/163/49
f 84/169/48 85/171/48 83/167/48
f 86/173/47 87/175/47 85/171/47
f 88/177/46 89/179/46 87/175/46
f 90/181/45 91/183/45 89/179/45
f 92/185/44 93/187/44 91/183/44
f 94/189/43 95/191/43 93/187/43
f 96/193/42 97/195/42 95/191/42
f 98/197/34 99/199/34 97/195/34
f 100/201/33 101/203/33 99/199/33
f 102/205/32 103/207/32 101/203/32
f 104/209/31 105/211/31 103/207/31
f 106/213/30 107/215/30 105/211/30
f 108/217/29 109/219/29 107/215/29
f 110/221/28 111/223/28 109/219/28
f 112/225/27 113/227/27 111/223/27
f 114/229/26 115/231/26 113/227/26
f 116/233/25 117/235/25 115/231/25
f 118/237/24 119/239/24 117/235/24
f 120/241/23 121/243/23 119/239/23
f 122/245/22 123/247/22 121/243/22
f 124/249/21 125/251/21 123/247/21
f 126/253/20 127/255/20 125/251/20
f 128/257/19 129/259/19 127/255/19
f 130/261/18 131/263/18 129/259/18
f 140/281/67 2/5/67 1/2/67
f 132/265/17 133/267/17 131/263/17
f 138/277/68 140/281/68 139/279/68
f 134/269/69 135/271/69 133/267/69
f 136/273/70 138/277/70 137/275/70
f 136/273/70 137/275/70 135/271/70
f 122/246/71 58/118/71 26/54/71
f 134/269/69 136/273/69 135/271/69
f 138/277/68 139/279/68 137/275/68
f 140/281/67 1/2/67 139/279/67
f 23/48/72 87/176/72 119/240/72
f 6/14/71 4/10/71 2/6/71
f 2/6/71 140/282/71 138/278/71
f 138/278/71 136/274/71 134/270/71
f 134/270/71 132/266/71 130/262/71
f 130/262/71 128/258/71 126/254/71
f 126/254/71 124/250/71 122/246/71
f 122/246/71 120/242/71 118/238/71
f 118/238/71 116/234/71 114/230/71
f 114/230/71 112/226/71 110/222/71
f 110/222/71 108/218/71 106/214/71
f 106/214/71 104/210/71 102/206/71
f 102/206/71 100/202/71 98/198/71
f 98/198/71 96/194/71 94/190/71
f 94/190/71 92/186/71 90/182/71
f 90/182/71 88/178/71 86/174/71
f 86/174/71 84/170/71 82/166/71
f 82/166/71 80/162/71 78/158/71
f 78/158/71 76/154/71 74/150/71
f 74/150/71 72/146/71 70/142/71
f 70/142/71 68/138/71 66/134/71
f 66/134/71 64/130/71 62/126/71
f 62/126/71 60/122/71 58/118/71
f 58/118/71 56/114/71 54/110/71
f 54/110/71 52/106/71 50/102/71
f 50/102/71 48/98/71 46/94/71
f 46/94/71 44/90/71 42/86/71
f 42/86/71 40/82/71 38/78/71
f 38/78/71 36/74/71 34/70/71
f 34/70/71 32/66/71 30/62/71
f 30/62/71 28/58/71 26/54/71
f 26/54/71 24/50/71 22/46/71
f 22/46/71 20/42/71 18/38/71
f 18/38/71 16/34/71 14/30/71
f 14/30/71 12/26/71 10/22/71
f 10/22/71 8/18/71 6/14/71
f 6/14/71 2/6/71 138/278/71
f 138/278/71 134/270/71 130/262/71
f 130/262/71 126/254/71 122/246/71
f 122/246/71 118/238/71 114/230/71
f 114/230/71 110/222/71 106/214/71
f 106/214/71 102/206/71 98/198/71
f 98/198/71 94/190/71 90/182/71
f 90/182/71 86/174/71 82/166/71
f 82/166/71 78/158/71 74/150/71
f 74/150/71 70/142/71 66/134/71
f 66/134/71 62/126/71 58/118/71
f 58/118/71 54/110/71 50/102/71
f 50/102/71 46/94/71 42/86/71
f 42/86/71 38/78/71 34/70/71
f 34/70/71 30/62/71 26/54/71
f 26/54/71 22/46/71 18/38/71
f 18/38/71 14/30/71 10/22/71
f 10/22/71 6/14/71 138/278/71
f 138/278/71 130/262/71 122/246/71
f 122/246/71 114/230/71 106/214/71
f 106/214/71 98/198/71 90/182/71
f 90/182/71 82/166/71 74/150/71
f 74/150/71 66/134/71 58/118/71
f 58/118/71 50/102/71 42/86/71
f 42/86/71 34/70/71 26/54/71
f 26/54/71 18/38/71 10/22/71
f 10/22/71 138/278/71 122/246/71
f 122/246/71 106/214/71 90/182/71
f 90/182/71 74/150/71 58/118/71
f 58/118/71 42/86/71 26/54/71
f 26/54/71 10/22/71 122/246/71
f 122/246/71 90/182/71 58/118/71
f 139/280/72 1/3/72 3/8/72
f 3/8/72 5/12/72 7/16/72
f 7/16/72 9/20/72 11/24/72
f 11/24/72 13/28/72 15/32/72
f 15/32/72 17/36/72 19/40/72
f 19/40/72 21/44/72 23/48/72
f 23/48/72 25/52/72 27/56/72
f 27/56/72 29/60/72 31/64/72
f 31/64/72 33/68/72 35/72/72
f 35/72/72 37/76/72 39/80/72
f 39/80/72 41/84/72 43/88/72
f 43/88/72 45/92/72 47/96/72
f 47/96/72 49/100/72 51/104/72
f 51/104/72 53/108/72 55/112/72
f 55/112/72 57/116/72 59/120/72
f 59/120/72 61/124/72 63/128/72
f 63/128/72 65/132/72 67/136/72
f 67/136/72 69/140/72 71/144/72
f 71/144/72 73/148/72 75/152/72
f 75/152/72 77/156/72 79/160/72
f 79/160/72 81/164/72 83/168/72
f 83/168/72 85/172/72 87/176/72
f 87/176/72 89/180/72 91/184/72
f 91/184/72 93/188/72 95/192/72
f 95/192/72 97/196/72 99/200/72
f 99/200/72 101/204/72 103/208/72
f 103/208/72 105/212/72 107/216/72
f 107/216/72 109/220/72 111/224/72
f 111/224/72 113/228/72 115/232/72
f 115/232/72 117/236/72 119/240/72
f 119/240/72 121/244/72 123/248/72
f 123/248/72 125/252/72 127/256/72
f 127/256/72 129/260/72 131/264/72
f 131/264/72 133/268/72 135/272/72
f 135/272/72 137/276/72 139/280/72
f 139/280/72 3/8/72 7/16/72
f 7/16/72 11/24/72 15/32/72
f 15/32/72 19/40/72 23/48/72
f 23/48/72 27/56/72 31/64/72
f 31/64/72 35/72/72 39/80/72
f 39/80/72 43/88/72 47/96/72
f 47/96/72 51/104/72 55/112/72
f 55/112/72 59/120/72 63/128/72
f 63/128/72 67/136/72 71/144/72
f 71/144/72 75/152/72 79/160/72
f 79/160/72 83/168/72 87/176/72
f 87/176/72 91/184/72 95/192/72
f 95/192/72 99/200/72 103/208/72
f 103/208/72 107/216/72 111/224/72
f 111/224/72 115/232/72 119/240/72
f 119/240/72 123/248/72 127/256/72
f 127/256/72 131/264/72 135/272/72
f 135/272/72 139/280/72 7/16/72
f 7/16/72 15/32/72 23/48/72
f 23/48/72 31/64/72 39/80/72
f 39/80/72 47/96/72 55/112/72
f 55/112/72 63/128/72 71/144/72
f 71/144/72 79/160/72 87/176/72
f 87/176/72 95/192/72 103/208/72
f 103/208/72 111/224/72 119/240/72
f 119/240/72 127/256/72 135/272/72
f 135/272/72 7/16/72 23/48/72
f 23/48/72 39/80/72 55/112/72
f 55/112/72 71/144/72 87/176/72
f 87/176/72 103/208/72 119/240/72
f 119/240/72 135/272/72 23/48/72
f 23/48/72 55/112/72 87/176/72
