# Mesh Id
o cube

# Vertex Positions
v -0.5 -0.5 0.5
v -0.5 -0.5 -0.5
v 0.5 -0.5 -0.5
v 0.5 -0.5 0.5
v -0.5 0.5 0.5
v -0.5 0.5 -0.5
v 0.5 0.5 -0.5
v 0.5 0.5 0.5

# Vertex Normals
vn -1.0 0.0 0.0
vn 0.0 0.0 -1.0
vn 1.0 -0.0 0.0
vn 0.0 -0.0 1.0
vn 0.0 -1.0 0.0
vn 0.0 1.0 0.0

# UV coordinate
vt 0.0 0.0
vt 0.0 0.99
vt 1.0 1.0
vt 1.0 0.0

# Triangle face indices: vertex//normal
# Indices start at 1
f 5/3/1 6/2/1 2/1/1
f 6/3/2 7/2/2 3/1/2
f 7/3/3 8/2/3 4/1/3
f 8/3/4 1/1/4 4/4/4
f 8/3/4 1/1/4 5/2/4
f 1/1/5 2/2/5 3/3/5
f 8/4/6 7/3/6 6/2/6
f 1/4/1 5/3/1 2/1/1
f 2/4/2 6/3/2 3/1/2
f 3/4/3 7/3/3 4/1/3
f 4/4/5 1/1/5 3/3/5
f 5/1/6 8/4/6 6/2/6
