# Blender 3.3.1
# www.blender.org
mtllib plant3.mtl
o plant3
v -0.078155 1.057424 -0.084740
v 0.045055 -0.004897 0.038471
v 0.093823 1.057424 -0.084740
v -0.029387 -0.004897 0.038471
v -0.078155 1.057424 0.087238
v 0.045055 -0.004897 -0.035972
v 0.093823 1.057424 0.087238
v -0.029387 -0.004897 -0.035972
v 0.069439 0.526263 -0.060356
v -0.053771 0.526263 0.062855
v 0.069439 0.526263 0.062855
v -0.053771 0.526263 -0.060356
v 0.077715 0.260683 0.001249
v 0.007834 0.260683 0.071130
v 0.007834 0.260683 -0.068632
v -0.062047 0.260683 0.001249
v -0.044335 0.585281 0.075755
v -0.032224 0.644299 0.087155
v -0.017690 0.703317 0.096507
v -0.001095 0.762335 0.103309
v 0.017097 0.821353 0.107126
v 0.036333 0.880370 0.107610
v 0.055989 0.939388 0.104518
v 0.075387 0.998406 0.097725
v -0.059719 0.998406 -0.095227
v -0.040321 0.939388 -0.102019
v -0.020665 0.880370 -0.105111
v -0.001429 0.821353 -0.104627
v 0.016763 0.762335 -0.100810
v 0.033358 0.703317 -0.094008
v 0.047892 0.644299 -0.084656
v 0.060003 0.585281 -0.073256
v -0.088642 0.998406 0.068803
v -0.095434 0.939388 0.049404
v -0.098526 0.880370 0.029748
v -0.098042 0.821353 0.010512
v -0.094225 0.762335 -0.007680
v -0.087423 0.703317 -0.024275
v -0.078071 0.644299 -0.038809
v -0.066672 0.585281 -0.050920
v 0.104310 0.998406 -0.066304
v 0.111102 0.939388 -0.046906
v 0.114194 0.880370 -0.027250
v 0.113710 0.821353 -0.008014
v 0.109894 0.762335 0.010178
v 0.103091 0.703317 0.026773
v 0.093740 0.644299 0.041308
v 0.082340 0.585281 0.053419
v -0.064055 0.298623 0.009349
v -0.065098 0.336563 0.017895
v -0.065100 0.374503 0.026770
v -0.064004 0.412443 0.035844
v -0.061764 0.450383 0.044981
v -0.058356 0.488323 0.054034
v 0.074024 0.488323 -0.051535
v 0.077432 0.450383 -0.042482
v 0.079672 0.412443 -0.033346
v 0.080768 0.374503 -0.024272
v 0.080766 0.336563 -0.015397
v 0.079723 0.298623 -0.006851
v 0.060619 0.488323 0.067439
v 0.051565 0.450383 0.070847
v 0.042429 0.412443 0.073087
v 0.033355 0.374503 0.074184
v 0.024480 0.336563 0.074181
v 0.015934 0.298623 0.073139
v -0.044951 0.488323 -0.064941
v -0.035897 0.450383 -0.068349
v -0.026761 0.412443 -0.070588
v -0.017687 0.374503 -0.071685
v -0.008812 0.336563 -0.071683
v -0.000266 0.298623 -0.070640
v 0.074828 0.222743 0.008798
v 0.071160 0.184803 0.015703
v 0.066819 0.146863 0.021889
v 0.061918 0.108923 0.027295
v 0.056576 0.070983 0.031876
v 0.050915 0.033043 0.035605
v 0.000286 0.222743 0.068243
v -0.006620 0.184803 0.064576
v -0.012806 0.146863 0.060234
v -0.018211 0.108923 0.055333
v -0.022793 0.070983 0.049991
v -0.026522 0.033043 0.044330
v 0.015382 0.222743 -0.065745
v 0.022288 0.184803 -0.062077
v 0.028474 0.146863 -0.057736
v 0.033879 0.108923 -0.052835
v 0.038461 0.070983 -0.047493
v 0.042190 0.033043 -0.041831
v -0.035247 0.033043 -0.033106
v -0.040908 0.070983 -0.029377
v -0.046250 0.108923 -0.024796
v -0.051151 0.146863 -0.019390
v -0.055492 0.184803 -0.013205
v -0.059160 0.222743 -0.006299
vn -0.1118 0.0577 -0.9921
vn 0.1724 0.1187 0.9779
vn 0.1118 0.0577 0.9921
vn -0.0000 1.0000 -0.0000
vn 0.9921 0.0577 -0.1118
vn -0.9921 0.0577 0.1118
vn 0.7026 0.1128 -0.7026
vn -0.1724 0.1187 -0.9779
vn -0.7026 0.1128 0.7026
vn 0.7026 0.1128 0.7026
vn -0.9779 0.1187 0.1724
vn 0.9779 0.1187 -0.1724
vn -0.0000 -1.0000 -0.0000
vn -0.7786 0.0913 -0.6209
vn -0.0000 0.1749 -0.9846
vn 0.1712 0.1680 -0.9708
vn 0.4891 0.2073 -0.8472
vn 0.4940 0.1540 -0.8557
vn 0.7519 0.1910 -0.6310
vn 0.7585 0.1399 -0.6365
vn 0.8583 0.1329 -0.4956
vn 0.9322 0.1258 -0.3393
vn -0.0000 0.1749 0.9846
vn -0.1712 0.1680 0.9708
vn -0.4891 0.2073 0.8472
vn -0.6299 0.1992 0.7507
vn -0.7519 0.1910 0.6310
vn -0.7585 0.1399 0.6365
vn -0.8583 0.1329 0.4956
vn -0.9322 0.1258 0.3393
vn -0.9846 0.1749 -0.0000
vn -0.9708 0.1680 -0.1712
vn -0.8472 0.2073 -0.4891
vn -0.8557 0.1540 -0.4940
vn -0.6310 0.1910 -0.7519
vn -0.6365 0.1399 -0.7585
vn -0.4956 0.1329 -0.8583
vn -0.3393 0.1258 -0.9322
vn 0.9846 0.1749 -0.0000
vn 0.9708 0.1680 0.1712
vn 0.9274 0.1610 0.3376
vn 0.8557 0.1540 0.4940
vn 0.7577 0.1470 0.6358
vn 0.6365 0.1399 0.7585
vn 0.4956 0.1329 0.8583
vn 0.3393 0.1258 0.9322
vn -0.9928 0.1200 -0.0000
vn -0.9871 0.1152 -0.1112
vn -0.9354 0.1340 -0.3273
vn -0.9386 0.1057 -0.3284
vn -0.8964 0.1009 -0.4317
vn -0.8428 0.0961 -0.5296
vn 0.9928 0.1200 -0.0000
vn 0.9871 0.1152 0.1112
vn 0.9354 0.1340 0.3273
vn 0.9386 0.1057 0.3284
vn 0.8964 0.1009 0.4317
vn 0.8428 0.0961 0.5296
vn -0.0000 0.1200 0.9928
vn -0.1112 0.1152 0.9871
vn -0.2212 0.1105 0.9690
vn -0.3284 0.1057 0.9386
vn -0.4317 0.1009 0.8964
vn -0.6191 0.1181 0.7764
vn -0.0000 0.1200 -0.9928
vn 0.1112 0.1152 -0.9871
vn 0.3273 0.1340 -0.9354
vn 0.3284 0.1057 -0.9386
vn 0.4317 0.1009 -0.8964
vn 0.5296 0.0961 -0.8428
vn -0.7045 0.0865 0.7045
vn -0.8423 0.1021 0.5293
vn -0.8442 0.0769 0.5305
vn -0.8986 0.0721 0.4328
vn -0.9417 0.0673 0.3295
vn -0.9730 0.0625 0.2221
vn 0.7045 0.0866 -0.7045
vn 0.7792 0.0818 -0.6214
vn 0.8967 0.0968 -0.4318
vn 0.8986 0.0721 -0.4328
vn 0.9417 0.0673 -0.3295
vn 0.9730 0.0625 -0.2221
vn 0.7045 0.0865 0.7045
vn 0.6214 0.0818 0.7792
vn 0.4318 0.0968 0.8967
vn 0.4328 0.0721 0.8986
vn 0.3295 0.0673 0.9417
vn 0.2221 0.0625 0.9730
vn -0.7045 0.0866 -0.7045
vn -0.6214 0.0818 -0.7792
vn -0.5305 0.0769 -0.8442
vn -0.4328 0.0721 -0.8986
vn -0.3295 0.0673 -0.9417
vn -0.2221 0.0625 -0.9730
vn -0.0000 -0.1526 -0.9883
vn -0.0000 -0.2135 0.9769
vn -0.0000 -0.1526 0.9883
vn 0.9883 -0.1526 -0.0000
vn -0.9883 -0.1526 -0.0000
vn 0.6114 -0.1960 -0.7667
vn -0.0000 -0.2135 -0.9769
vn -0.6114 -0.1960 0.7667
vn 0.7667 -0.1960 0.6114
vn -0.9769 -0.2135 -0.0000
vn 0.9769 -0.2135 -0.0000
vn -0.6949 -0.1851 -0.6949
vn 0.1674 -0.2667 -0.9491
vn 0.3302 -0.2602 -0.9073
vn 0.3280 -0.2830 -0.9013
vn 0.6229 -0.2471 -0.7423
vn 0.6193 -0.2676 -0.7381
vn 0.8420 -0.2337 -0.4861
vn 0.9152 -0.2270 -0.3331
vn 0.9606 -0.2203 -0.1694
vn -0.1674 -0.2667 0.9491
vn -0.3302 -0.2602 0.9073
vn -0.3280 -0.2830 0.9013
vn -0.4807 -0.2753 0.8326
vn -0.6193 -0.2676 0.7381
vn -0.8420 -0.2337 0.4861
vn -0.9152 -0.2270 0.3331
vn -0.9606 -0.2203 0.1694
vn -0.9491 -0.2667 -0.1674
vn -0.9073 -0.2602 -0.3302
vn -0.9013 -0.2830 -0.3280
vn -0.7423 -0.2471 -0.6229
vn -0.7381 -0.2676 -0.6193
vn -0.4861 -0.2337 -0.8420
vn -0.3331 -0.2270 -0.9152
vn -0.1694 -0.2203 -0.9606
vn 0.9491 -0.2667 0.1674
vn 0.9073 -0.2602 0.3302
vn 0.8377 -0.2537 0.4836
vn 0.7423 -0.2471 0.6229
vn 0.6239 -0.2404 0.7436
vn 0.4861 -0.2337 0.8420
vn 0.3331 -0.2270 0.9152
vn 0.1694 -0.2203 0.9606
vn -0.9710 -0.2125 -0.1094
vn -0.9536 -0.2080 -0.2177
vn -0.9518 -0.2164 -0.2172
vn -0.8830 -0.1989 -0.4252
vn -0.8306 -0.1943 -0.5219
vn -0.7676 -0.1897 -0.6122
vn 0.9710 -0.2125 0.1094
vn 0.9536 -0.2080 0.2177
vn 0.9518 -0.2164 0.2172
vn 0.8830 -0.1989 0.4252
vn 0.8306 -0.1943 0.5219
vn 0.7676 -0.1897 0.6122
vn -0.1094 -0.2125 0.9710
vn -0.2177 -0.2080 0.9536
vn -0.3234 -0.2035 0.9241
vn -0.4252 -0.1989 0.8830
vn -0.5219 -0.1943 0.8306
vn -0.5212 -0.2012 0.8294
vn 0.1094 -0.2125 -0.9710
vn 0.2177 -0.2080 -0.9536
vn 0.2172 -0.2164 -0.9518
vn 0.4252 -0.1989 -0.8830
vn 0.5219 -0.1943 -0.8306
vn 0.6122 -0.1897 -0.7676
vn -0.7690 -0.1805 0.6132
vn -0.7682 -0.1858 0.6126
vn -0.8877 -0.1713 0.4275
vn -0.9307 -0.1666 0.3257
vn -0.9621 -0.1620 0.2196
vn -0.9813 -0.1573 0.1106
vn 0.7690 -0.1805 -0.6132
vn 0.8335 -0.1759 -0.5237
vn 0.8328 -0.1806 -0.5233
vn 0.9307 -0.1666 -0.3257
vn 0.9621 -0.1620 -0.2196
vn 0.9813 -0.1573 -0.1106
vn 0.6132 -0.1805 0.7690
vn 0.5237 -0.1759 0.8335
vn 0.5233 -0.1806 0.8328
vn 0.3257 -0.1666 0.9307
vn 0.2196 -0.1620 0.9621
vn 0.1106 -0.1573 0.9813
vn -0.6132 -0.1805 -0.7690
vn -0.5237 -0.1759 -0.8335
vn -0.4275 -0.1713 -0.8877
vn -0.3257 -0.1666 -0.9307
vn -0.2196 -0.1620 -0.9621
vn -0.1106 -0.1573 -0.9813
vt 0.625000 0.500000
vt 0.375000 0.500000
vt 0.625000 0.750000
vt 0.375000 0.750000
vt 0.875000 0.500000
vt 0.625000 0.250000
vt 0.375000 0.250000
vt 0.125000 0.500000
vt 0.625000 0.000000
vt 0.875000 0.750000
vt 0.625000 1.000000
vt 0.375000 0.000000
vt 0.375000 1.000000
vt 0.125000 0.750000
vt 0.500000 0.500000
vt 0.500000 0.000000
vt 0.500000 1.000000
vt 0.500000 0.750000
vt 0.500000 0.250000
vt 0.437500 0.500000
vt 0.437500 0.750000
vt 0.437500 0.250000
vt 0.437500 0.000000
vt 0.437500 1.000000
vt 0.513889 0.000000
vt 0.513889 1.000000
vt 0.527778 0.000000
vt 0.527778 1.000000
vt 0.541667 0.000000
vt 0.541667 1.000000
vt 0.555556 0.000000
vt 0.555556 1.000000
vt 0.569444 0.000000
vt 0.569444 1.000000
vt 0.583333 0.000000
vt 0.583333 1.000000
vt 0.597222 0.000000
vt 0.597222 1.000000
vt 0.611111 0.000000
vt 0.611111 1.000000
vt 0.611111 0.500000
vt 0.597222 0.500000
vt 0.583333 0.500000
vt 0.569444 0.500000
vt 0.555556 0.500000
vt 0.541667 0.500000
vt 0.527778 0.500000
vt 0.513889 0.500000
vt 0.611111 0.250000
vt 0.597222 0.250000
vt 0.583333 0.250000
vt 0.569444 0.250000
vt 0.555556 0.250000
vt 0.541667 0.250000
vt 0.527778 0.250000
vt 0.513889 0.250000
vt 0.611111 0.750000
vt 0.597222 0.750000
vt 0.583333 0.750000
vt 0.569444 0.750000
vt 0.555556 0.750000
vt 0.541667 0.750000
vt 0.527778 0.750000
vt 0.513889 0.750000
vt 0.446429 0.000000
vt 0.446429 1.000000
vt 0.455357 0.000000
vt 0.455357 1.000000
vt 0.464286 0.000000
vt 0.464286 1.000000
vt 0.473214 0.000000
vt 0.473214 1.000000
vt 0.482143 0.000000
vt 0.482143 1.000000
vt 0.491071 0.000000
vt 0.491071 1.000000
vt 0.491071 0.500000
vt 0.482143 0.500000
vt 0.473214 0.500000
vt 0.464286 0.500000
vt 0.455357 0.500000
vt 0.446429 0.500000
vt 0.491071 0.750000
vt 0.482143 0.750000
vt 0.473214 0.750000
vt 0.464286 0.750000
vt 0.455357 0.750000
vt 0.446429 0.750000
vt 0.491071 0.250000
vt 0.482143 0.250000
vt 0.473214 0.250000
vt 0.464286 0.250000
vt 0.455357 0.250000
vt 0.446429 0.250000
vt 0.428571 0.500000
vt 0.419643 0.500000
vt 0.410714 0.500000
vt 0.401786 0.500000
vt 0.392857 0.500000
vt 0.383929 0.500000
vt 0.428571 0.750000
vt 0.419643 0.750000
vt 0.410714 0.750000
vt 0.401786 0.750000
vt 0.392857 0.750000
vt 0.383929 0.750000
vt 0.428571 0.250000
vt 0.419643 0.250000
vt 0.410714 0.250000
vt 0.401786 0.250000
vt 0.392857 0.250000
vt 0.383929 0.250000
vt 0.383929 1.000000
vt 0.383929 0.000000
vt 0.392857 1.000000
vt 0.392857 0.000000
vt 0.401786 1.000000
vt 0.401786 0.000000
vt 0.410714 1.000000
vt 0.410714 0.000000
vt 0.419643 1.000000
vt 0.419643 0.000000
vt 0.428571 1.000000
vt 0.428571 0.000000
s 0
usemtl Material
f 90/112/1 8/12/1 91/114/1
f 17/26/2 11/18/2 48/64/2
f 84/106/3 2/2/3 78/100/3
f 7/10/4 1/1/4 5/5/4
f 78/100/5 6/7/5 90/112/5
f 91/113/6 4/4/6 84/106/6
f 72/94/7 13/20/7 15/22/7
f 32/48/8 12/19/8 40/56/8
f 66/88/9 16/24/9 14/21/9
f 60/82/10 14/21/10 13/20/10
f 40/56/11 10/16/11 17/25/11
f 48/64/12 9/15/12 32/48/12
f 4/4/13 6/8/13 2/2/13
f 72/94/14 16/23/14 49/65/14
f 3/3/15 25/41/15 1/1/15
f 41/57/16 26/42/16 25/41/16
f 26/42/17 43/59/17 27/43/17
f 43/59/18 28/44/18 27/43/18
f 28/44/19 45/61/19 29/45/19
f 45/61/20 30/46/20 29/45/20
f 46/62/21 31/47/21 30/46/21
f 47/63/22 32/48/22 31/47/22
f 5/6/23 24/39/23 7/9/23
f 33/49/24 23/37/24 24/39/24
f 23/37/25 35/51/25 22/35/25
f 22/35/26 36/52/26 21/33/26
f 21/33/27 37/53/27 20/31/27
f 37/53/28 19/29/28 20/31/28
f 38/54/29 18/27/29 19/29/29
f 39/55/30 17/25/30 18/27/30
f 1/1/31 33/49/31 5/6/31
f 25/41/32 34/50/32 33/49/32
f 34/50/33 27/43/33 35/51/33
f 27/43/34 36/52/34 35/51/34
f 36/52/35 29/45/35 37/53/35
f 29/45/36 38/54/36 37/53/36
f 30/46/37 39/55/37 38/54/37
f 31/47/38 40/56/38 39/55/38
f 7/11/39 41/57/39 3/3/39
f 24/40/40 42/58/40 41/57/40
f 23/38/41 43/59/41 42/58/41
f 22/36/42 44/60/42 43/59/42
f 21/34/43 45/61/43 44/60/43
f 20/32/44 46/62/44 45/61/44
f 19/30/45 47/63/45 46/62/45
f 18/28/46 48/64/46 47/63/46
f 12/19/47 54/75/47 10/16/47
f 67/89/48 53/73/48 54/75/48
f 53/73/49 69/91/49 52/71/49
f 69/91/50 51/69/50 52/71/50
f 70/92/51 50/67/51 51/69/51
f 71/93/52 49/65/52 50/67/52
f 11/18/53 55/77/53 9/15/53
f 61/83/54 56/78/54 55/77/54
f 56/78/55 63/85/55 57/79/55
f 63/85/56 58/80/56 57/79/56
f 64/86/57 59/81/57 58/80/57
f 65/87/58 60/82/58 59/81/58
f 10/17/59 61/83/59 11/18/59
f 54/76/60 62/84/60 61/83/60
f 53/74/61 63/85/61 62/84/61
f 52/72/62 64/86/62 63/85/62
f 51/70/63 65/87/63 64/86/63
f 65/87/64 49/66/64 66/88/64
f 9/15/65 67/89/65 12/19/65
f 55/77/66 68/90/66 67/89/66
f 68/90/67 57/79/67 69/91/67
f 57/79/68 70/92/68 69/91/68
f 58/80/69 71/93/69 70/92/69
f 59/81/70 72/94/70 71/93/70
f 16/24/71 79/101/71 14/21/71
f 79/101/72 95/121/72 80/102/72
f 95/121/73 81/103/73 80/102/73
f 94/119/74 82/104/74 81/103/74
f 93/117/75 83/105/75 82/104/75
f 92/115/76 84/106/76 83/105/76
f 13/20/77 85/107/77 15/22/77
f 73/95/78 86/108/78 85/107/78
f 86/108/79 75/97/79 87/109/79
f 75/97/80 88/110/80 87/109/80
f 76/98/81 89/111/81 88/110/81
f 77/99/82 90/112/82 89/111/82
f 14/21/83 73/95/83 13/20/83
f 79/101/84 74/96/84 73/95/84
f 74/96/85 81/103/85 75/97/85
f 81/103/86 76/98/86 75/97/86
f 82/104/87 77/99/87 76/98/87
f 83/105/88 78/100/88 77/99/88
f 15/22/89 96/124/89 16/23/89
f 85/107/90 95/122/90 96/124/90
f 86/108/91 94/120/91 95/122/91
f 87/109/92 93/118/92 94/120/92
f 88/110/93 92/116/93 93/118/93
f 89/111/94 91/114/94 92/116/94
f 90/112/95 6/7/95 8/12/95
f 17/26/96 10/17/96 11/18/96
f 84/106/97 4/4/97 2/2/97
f 7/10/4 3/3/4 1/1/4
f 78/100/98 2/2/98 6/7/98
f 91/113/99 8/13/99 4/4/99
f 72/94/100 60/82/100 13/20/100
f 32/48/101 9/15/101 12/19/101
f 66/88/102 49/66/102 16/24/102
f 60/82/103 66/88/103 14/21/103
f 40/56/104 12/19/104 10/16/104
f 48/64/105 11/18/105 9/15/105
f 4/4/13 8/14/13 6/8/13
f 72/94/106 15/22/106 16/23/106
f 3/3/107 41/57/107 25/41/107
f 41/57/108 42/58/108 26/42/108
f 26/42/109 42/58/109 43/59/109
f 43/59/110 44/60/110 28/44/110
f 28/44/111 44/60/111 45/61/111
f 45/61/112 46/62/112 30/46/112
f 46/62/113 47/63/113 31/47/113
f 47/63/114 48/64/114 32/48/114
f 5/6/115 33/49/115 24/39/115
f 33/49/116 34/50/116 23/37/116
f 23/37/117 34/50/117 35/51/117
f 22/35/118 35/51/118 36/52/118
f 21/33/119 36/52/119 37/53/119
f 37/53/120 38/54/120 19/29/120
f 38/54/121 39/55/121 18/27/121
f 39/55/122 40/56/122 17/25/122
f 1/1/123 25/41/123 33/49/123
f 25/41/124 26/42/124 34/50/124
f 34/50/125 26/42/125 27/43/125
f 27/43/126 28/44/126 36/52/126
f 36/52/127 28/44/127 29/45/127
f 29/45/128 30/46/128 38/54/128
f 30/46/129 31/47/129 39/55/129
f 31/47/130 32/48/130 40/56/130
f 7/11/131 24/40/131 41/57/131
f 24/40/132 23/38/132 42/58/132
f 23/38/133 22/36/133 43/59/133
f 22/36/134 21/34/134 44/60/134
f 21/34/135 20/32/135 45/61/135
f 20/32/136 19/30/136 46/62/136
f 19/30/137 18/28/137 47/63/137
f 18/28/138 17/26/138 48/64/138
f 12/19/139 67/89/139 54/75/139
f 67/89/140 68/90/140 53/73/140
f 53/73/141 68/90/141 69/91/141
f 69/91/142 70/92/142 51/69/142
f 70/92/143 71/93/143 50/67/143
f 71/93/144 72/94/144 49/65/144
f 11/18/145 61/83/145 55/77/145
f 61/83/146 62/84/146 56/78/146
f 56/78/147 62/84/147 63/85/147
f 63/85/148 64/86/148 58/80/148
f 64/86/149 65/87/149 59/81/149
f 65/87/150 66/88/150 60/82/150
f 10/17/151 54/76/151 61/83/151
f 54/76/152 53/74/152 62/84/152
f 53/74/153 52/72/153 63/85/153
f 52/72/154 51/70/154 64/86/154
f 51/70/155 50/68/155 65/87/155
f 65/87/156 50/68/156 49/66/156
f 9/15/157 55/77/157 67/89/157
f 55/77/158 56/78/158 68/90/158
f 68/90/159 56/78/159 57/79/159
f 57/79/160 58/80/160 70/92/160
f 58/80/161 59/81/161 71/93/161
f 59/81/162 60/82/162 72/94/162
f 16/24/163 96/123/163 79/101/163
f 79/101/164 96/123/164 95/121/164
f 95/121/165 94/119/165 81/103/165
f 94/119/166 93/117/166 82/104/166
f 93/117/167 92/115/167 83/105/167
f 92/115/168 91/113/168 84/106/168
f 13/20/169 73/95/169 85/107/169
f 73/95/170 74/96/170 86/108/170
f 86/108/171 74/96/171 75/97/171
f 75/97/172 76/98/172 88/110/172
f 76/98/173 77/99/173 89/111/173
f 77/99/174 78/100/174 90/112/174
f 14/21/175 79/101/175 73/95/175
f 79/101/176 80/102/176 74/96/176
f 74/96/177 80/102/177 81/103/177
f 81/103/178 82/104/178 76/98/178
f 82/104/179 83/105/179 77/99/179
f 83/105/180 84/106/180 78/100/180
f 15/22/181 85/107/181 96/124/181
f 85/107/182 86/108/182 95/122/182
f 86/108/183 87/109/183 94/120/183
f 87/109/184 88/110/184 93/118/184
f 88/110/185 89/111/185 92/116/185
f 89/111/186 90/112/186 91/114/186
