# Blender 3.3.1
# www.blender.org
mtllib shipMidStripe.mtl
o shipMidStripe
v 0.277483 0.253497 0.396239
v 0.835087 0.253497 0.295787
v 0.835087 0.253497 -0.287872
v -0.280121 0.253497 0.297509
v 0.277483 0.253497 -0.396239
v -0.280121 0.253497 -0.296518
v 0.277483 0.253497 0.396239
v 0.835087 0.253497 0.295787
v 0.277483 0.253497 -0.396239
v 0.835087 0.253497 -0.287872
v -0.280121 0.253497 0.297509
v 0.277483 0.253497 0.396239
v -0.280121 0.253497 -0.296518
v 0.277483 0.253497 -0.396239
v 0.277483 0.253497 0.396239
v 0.835087 0.253497 0.295787
v 0.277483 0.253497 -0.396239
v 0.835087 0.253497 -0.287872
v -0.280121 0.253497 0.297509
v 0.277483 0.253497 0.396239
v -0.280121 0.253497 -0.296518
v 0.277483 0.253497 -0.396239
v 0.277483 0.253497 0.396239
v 0.835087 0.253497 0.295787
v 0.277483 0.253497 -0.396239
v 0.835087 0.253497 -0.287872
v -0.280121 0.253497 0.297509
v -0.280121 0.253497 -0.296518
v 0.277483 0.058915 -0.396239
v 0.277483 0.058915 0.396239
v -0.280121 0.058915 0.074996
v 0.835087 0.058915 -0.287872
v 0.835087 0.058915 0.295787
v -0.383549 0.061424 0.002239
v -0.280121 0.058915 -0.074746
v 0.277483 0.156206 0.396239
v 0.835087 0.156206 -0.287872
v -0.540411 0.155151 0.001791
v -0.280121 0.156206 -0.185632
v 0.277483 0.156206 -0.396239
v -0.280121 0.160631 0.182714
v 0.835087 0.156206 0.295787
v 0.277483 0.156206 -0.396239
v 0.277483 0.058915 -0.396239
v -0.280121 0.058915 -0.074746
v -0.280121 0.156206 -0.185284
v 0.278802 0.241557 0.396239
v 0.836406 0.241557 0.295787
v 0.836406 0.241557 -0.287872
v -0.278802 0.241557 0.297509
v 0.278802 0.241557 -0.396239
v -0.278802 0.241557 -0.296518
v 0.278802 0.241557 0.396239
v 0.836406 0.241557 0.295787
v 0.278802 0.241557 -0.396239
v 0.836406 0.241557 -0.287872
v -0.278802 0.241557 0.297509
v 0.278802 0.241557 0.396239
v -0.278802 0.241557 -0.296518
v 0.278802 0.241557 -0.396239
v 0.278802 0.241557 0.396239
v 0.836406 0.241557 0.295787
v 0.278802 0.241557 -0.396239
v 0.836406 0.241557 -0.287872
v -0.278802 0.241557 0.297509
v 0.278802 0.241557 0.396239
v -0.278802 0.241557 -0.296518
v 0.278802 0.241557 -0.396239
v 0.278802 0.241557 0.396239
v 0.836406 0.241557 0.295787
v 0.278802 0.241557 -0.396239
v 0.836406 0.241557 -0.287872
v -0.278802 0.241557 0.297509
v -0.278802 0.241557 -0.296518
v 0.278802 0.060891 -0.396239
v 0.278802 0.060891 0.396239
v -0.278802 0.060891 0.074996
v 0.836406 0.060891 -0.287872
v 0.836406 0.060891 0.295787
v -0.382230 0.063221 0.002239
v -0.278802 0.060891 -0.074746
v 0.278802 0.154400 0.393744
v 0.836406 0.151224 -0.287872
v -0.540272 0.152389 0.001119
v -0.278802 0.151224 -0.185632
v 0.278802 0.151224 -0.396239
v -0.278802 0.163212 0.184429
v 0.836406 0.151280 0.295787
v 0.278802 0.151224 -0.396239
v 0.278802 0.060891 -0.396239
v -0.278802 0.060891 -0.074746
v -0.278802 0.151224 -0.185632
v 0.821734 0.151280 0.214340
v 0.821734 0.060891 0.214340
v 0.264130 0.060891 0.314792
v 0.264130 0.151280 0.314792
v 0.258187 0.151224 -0.290165
v 0.258187 0.060891 -0.290165
v 0.815791 0.060891 -0.181797
v 0.815791 0.151224 -0.181797
v 0.734564 0.151224 0.295787
v 0.734564 0.060891 0.295787
v 0.734564 0.060891 -0.287872
v 0.734564 0.151224 -0.287872
v -0.246571 0.055760 0.010632
v 0.311033 0.055760 -0.310861
v -0.246571 0.146093 -0.100255
v 0.311033 0.146093 -0.310861
v -0.306818 0.161977 0.100572
v -0.306818 0.052142 -0.003109
v 0.250786 0.077818 0.317107
v 0.250786 0.153332 0.309887
v -0.293896 0.065708 0.065608
v -0.190468 0.063379 -0.011376
v -0.451939 0.154876 0.064489
v -0.190468 0.153712 -0.122262
v -0.200865 0.154879 0.139417
v -0.200865 0.064546 0.028160
v -0.304293 0.066875 -0.044597
v -0.462336 0.156044 -0.045716
v 0.301611 0.060891 0.388577
v 0.301611 0.151224 0.388577
v 0.273595 0.069983 0.305180
v 0.273595 0.160316 0.305180
vn 0.1773 -0.0000 0.9842
vn -0.4211 -0.7020 0.5744
vn 0.1908 -0.0000 -0.9816
vn -0.4267 -0.6798 -0.5965
vn 1.0000 -0.0000 -0.0000
vn -0.3678 -0.6761 0.6384
vn -0.3538 -0.0000 -0.9353
vn -0.0000 1.0000 -0.0000
vn -0.9842 -0.0000 0.1773
vn -0.0149 0.9985 0.0531
vn 0.9816 -0.0000 0.1908
vn -0.0033 0.9994 -0.0347
vn -0.0000 -0.0000 -1.0000
vn 0.8955 0.3251 -0.3040
vn 0.0284 0.9984 0.0493
vn -0.0000 -1.0000 -0.0000
vn 0.9832 -0.0000 -0.1827
vn -0.9816 -0.0000 -0.1908
vn -0.0000 -0.0000 1.0000
vn -0.0000 -1.0000 0.0001
vn -0.3533 -0.0000 -0.9355
vn -0.0198 -0.9984 -0.0525
vn 0.8402 -0.4204 -0.3425
vn -0.9356 -0.0000 0.3532
vn -0.3601 -0.6404 0.6784
vn -0.1256 -0.9906 0.0546
vn 0.0229 0.9926 -0.1194
vn -0.0235 -0.9995 0.0206
vn -0.4138 -0.7058 -0.5750
vn 0.0118 -0.9997 0.0228
vn -0.4290 0.7003 0.5705
vn 0.4011 0.7035 -0.5867
vn -0.4101 -0.7199 0.5600
vn -0.0396 -0.9926 0.1151
vn -0.3835 0.7170 -0.5821
vn 0.3657 0.6565 0.6598
vn -0.9479 -0.0000 0.3184
vn -0.3184 -0.0000 -0.9479
vn 0.2021 -0.0000 0.9794
vn 0.3225 0.9466 -0.0051
vn -0.4193 -0.6601 0.6233
vn -0.4271 -0.7174 -0.5504
vn -0.3576 -0.0000 0.9339
vn -0.3560 -0.7015 -0.6174
vn 0.8756 0.3315 -0.3512
vn 0.0013 -0.9992 0.0392
vn 0.9841 -0.0047 -0.1773
vn 0.0005 -1.0000 -0.0000
vn -0.3422 -0.7285 -0.5935
vn -0.3488 0.0892 0.9329
vn 0.2519 -0.9493 -0.1881
vn -0.1479 0.9551 0.2567
vn -0.0240 -0.9995 0.0227
vn -0.4130 -0.7388 -0.5326
vn -0.4102 -0.7080 0.5749
vn 0.0233 -0.9990 -0.0392
vn -0.3016 0.6964 -0.6512
vn -0.2243 -0.0260 -0.9742
vn 0.4841 0.0833 0.8710
vn 0.0630 0.9803 0.1874
vt 0.666667 1.000000
vt 0.666667 0.000000
vt 0.333333 0.000000
vt 1.000000 1.000000
vt 1.000000 0.000000
vt 0.000000 0.000000
vt 0.333333 1.000000
vt 0.666667 0.000000
vt 1.000000 1.000000
vt 0.000000 0.000000
vt 0.333333 1.000000
vt 0.666667 1.000000
vt 0.333333 0.000000
vt 1.000000 0.000000
vt 0.666667 1.000000
vt 0.666667 1.000000
vt 0.333333 1.000000
vt 0.333333 1.000000
vt 0.666667 1.000000
vt 0.000000 0.000000
vt 0.666667 0.000000
vt 0.000000 0.000000
vt 0.000000 0.000000
vt 0.333333 0.000000
vt 1.000000 1.000000
vt 0.000000 0.000000
vt 1.000000 0.000000
vt 0.000000 0.000000
vt 0.000000 0.000000
vt 0.000000 0.000000
vt 0.333333 1.000000
vt 0.000000 0.000000
vt 0.666667 0.000000
vt 0.000000 0.000000
vt 1.000000 1.000000
vt 0.000000 0.000000
vt 0.333333 1.000000
vt 0.000000 0.000000
vt 0.000000 0.000000
vt 0.666667 1.000000
vt 0.000000 0.000000
vt 0.333333 0.000000
vt 1.000000 0.000000
vt 0.000000 0.000000
vt 0.666667 1.000000
vt 0.666667 1.000000
vt 0.333333 1.000000
vt 0.333333 1.000000
vt 0.000000 0.000000
vt 1.000000 0.000000
vt 1.000000 0.000000
vt 0.000000 0.000000
vt 0.000000 0.000000
vt 0.666667 0.000000
vt 0.666667 0.000000
vt 0.000000 0.000000
vt 0.666667 1.000000
vt 0.000000 0.000000
vt 0.666667 1.000000
vt 0.000000 0.000000
vt 0.000000 0.000000
vt 1.000000 1.000000
vt 1.000000 1.000000
vt 0.000000 0.000000
vt 1.000000 0.000000
vt 0.000000 0.000000
vt 1.000000 0.000000
vt 0.000000 0.000000
vt 1.000000 1.000000
vt 0.000000 0.000000
vt 1.000000 1.000000
vt 0.000000 0.000000
vt 0.333333 1.000000
vt 0.666667 1.000000
vt 0.333333 1.000000
vt 0.666667 1.000000
vt 0.333333 0.000000
vt 0.000000 0.000000
vt 0.000000 0.000000
vt 0.333333 0.000000
vt 0.666667 0.000000
vt 0.000000 0.000000
vt 0.000000 0.000000
vt 0.666667 0.000000
vt 0.000000 0.000000
vt 0.000000 0.000000
vt 0.333333 1.000000
vt 0.000000 0.000000
vt 0.000000 0.000000
vt 0.333333 1.000000
vt 0.000000 0.000000
vt 0.333333 0.000000
vt 0.000000 0.000000
vt 0.333333 0.000000
vt 0.000000 0.000000
vt 0.000000 0.000000
vt 0.666667 0.000000
vt 0.000000 0.000000
vt 0.000000 0.000000
vt 0.666667 0.000000
vt 0.000000 0.000000
vt 0.666667 0.000000
vt 0.000000 0.000000
vt 0.666667 0.000000
s 0
f 33/5/1 36/8/1 30/2/1
f 31/3/2 38/10/2 34/6/2
f 29/1/3 37/9/3 32/4/3
f 35/7/4 38/10/4 39/11/4
f 32/4/5 42/14/5 33/5/5
f 30/2/6 41/13/6 31/3/6
f 44/16/7 46/18/7 43/15/7
f 44/16/8 40/12/8 29/1/8
f 45/17/8 29/1/8 35/7/8
f 46/18/5 35/7/5 39/11/5
f 43/15/8 39/11/8 40/12/8
f 88/43/9 94/51/9 79/27/9
f 80/29/10 118/93/10 119/95/10
f 86/40/11 98/59/11 75/19/11
f 80/29/12 114/86/12 81/30/12
f 79/27/13 101/65/13 88/43/13
f 77/24/14 109/77/14 87/42/14
f 91/47/15 106/74/15 90/46/15
f 90/46/8 86/40/8 75/19/8
f 91/47/8 75/19/8 81/31/8
f 92/48/8 81/31/8 85/37/8
f 89/45/8 85/37/8 86/40/8
f 94/51/1 96/55/1 95/54/1
f 79/28/8 95/53/8 76/22/8
f 88/44/16 96/56/16 93/49/16
f 82/33/17 95/54/17 96/55/17
f 98/59/3 100/63/3 99/62/3
f 78/25/18 100/63/18 83/35/18
f 78/26/8 98/60/8 99/61/8
f 83/34/16 97/58/16 86/39/16
f 103/69/5 101/65/5 102/67/5
f 83/35/19 103/69/19 78/25/19
f 78/26/8 102/68/8 79/28/8
f 88/44/20 104/72/20 83/34/20
f 106/74/21 107/75/21 108/76/21
f 92/48/22 108/76/22 107/75/22
f 91/47/23 107/75/23 105/73/23
f 90/46/24 108/76/24 89/45/24
f 111/81/25 109/77/25 110/80/25
f 112/83/26 122/99/26 82/32/26
f 77/23/27 111/82/27 110/79/27
f 87/41/28 112/83/28 82/32/28
f 114/87/29 115/88/29 116/90/29
f 84/36/30 116/89/30 115/88/30
f 81/31/31 116/90/31 85/37/31
f 80/29/32 115/88/32 113/85/32
f 118/94/33 120/96/33 119/95/33
f 84/36/34 117/91/34 87/41/34
f 77/24/35 117/92/35 118/94/35
f 80/29/36 120/96/36 84/36/36
f 122/100/37 123/102/37 121/97/37
f 76/21/38 122/100/38 121/97/38
f 112/84/39 123/102/39 124/104/39
f 111/82/40 121/98/40 123/101/40
f 33/5/1 42/14/1 36/8/1
f 31/3/41 41/13/41 38/10/41
f 29/1/3 40/12/3 37/9/3
f 35/7/42 34/6/42 38/10/42
f 32/4/5 37/9/5 42/14/5
f 30/2/43 36/8/43 41/13/43
f 44/16/44 45/17/44 46/18/44
f 44/16/8 43/15/8 40/12/8
f 45/17/8 44/16/8 29/1/8
f 46/18/8 45/17/8 35/7/8
f 43/15/16 46/18/16 39/11/16
f 88/43/9 93/50/9 94/51/9
f 80/29/10 77/23/10 118/93/10
f 86/40/11 97/57/11 98/59/11
f 80/29/12 113/85/12 114/86/12
f 79/27/13 102/67/13 101/65/13
f 77/24/45 110/80/45 109/77/45
f 91/47/15 105/73/15 106/74/15
f 90/46/8 89/45/8 86/40/8
f 91/47/8 90/46/8 75/19/8
f 92/48/8 91/47/8 81/31/8
f 89/45/8 92/48/8 85/37/8
f 94/51/1 93/50/1 96/55/1
f 79/28/8 94/52/8 95/53/8
f 88/44/46 82/32/46 96/56/46
f 82/33/47 76/21/47 95/54/47
f 98/59/3 97/57/3 100/63/3
f 78/25/18 99/62/18 100/63/18
f 78/26/8 75/20/8 98/60/8
f 83/34/16 100/64/16 97/58/16
f 103/69/5 104/71/5 101/65/5
f 83/35/19 104/71/19 103/69/19
f 78/26/8 103/70/8 102/68/8
f 88/44/48 101/66/48 104/72/48
f 106/74/49 105/73/49 107/75/49
f 92/48/22 89/45/22 108/76/22
f 91/47/23 92/48/23 107/75/23
f 90/46/24 106/74/24 108/76/24
f 111/81/50 112/84/50 109/77/50
f 112/83/51 124/103/51 122/99/51
f 77/23/52 76/22/52 111/82/52
f 87/41/53 109/78/53 112/83/53
f 114/87/54 113/85/54 115/88/54
f 84/36/30 85/38/30 116/89/30
f 81/31/31 114/87/31 116/90/31
f 80/29/32 84/36/32 115/88/32
f 118/94/55 117/92/55 120/96/55
f 84/36/56 120/96/56 117/91/56
f 77/24/57 87/42/57 117/92/57
f 80/29/36 119/95/36 120/96/36
f 122/100/37 124/104/37 123/102/37
f 76/21/58 82/33/58 122/100/58
f 112/84/59 111/81/59 123/102/59
f 111/82/60 76/22/60 121/98/60
l 7 1
l 5 9
l 3 10
l 1 12
l 5 14
l 15 7
l 17 9
l 19 11
l 21 13
l 23 15
l 25 17
l 27 19
l 28 21
l 53 47
l 51 55
l 49 56
l 47 58
l 51 60
l 61 53
l 63 55
l 65 57
l 67 59
l 69 61
l 71 63
l 73 65
l 74 67
l 2 8
l 11 4
l 6 13
l 8 16
l 10 18
l 12 20
l 14 22
l 16 24
l 18 26
l 48 54
l 57 50
l 52 59
l 54 62
l 56 64
l 58 66
l 60 68
l 62 70
l 64 72
