# Blender 3.3.1
# www.blender.org
mtllib squidhouse.mtl
o squirdhouse
v 0.000000 -1.699039 -1.574772
v 0.000000 3.157748 -0.906922
v 0.443665 -1.699039 -1.510983
v 0.255509 3.157748 -0.870185
v 0.851386 -1.699039 -1.324782
v 0.490319 3.157748 -0.762951
v 1.190133 -1.699039 -1.031256
v 0.685406 3.157748 -0.593908
v 1.432463 -1.699039 -0.654184
v 0.824965 3.157748 -0.376749
v 1.558743 -1.699039 -0.224113
v 0.897691 3.157748 -0.129068
v 1.558743 -1.699039 0.224113
v 0.897691 3.157748 0.129068
v 1.432463 -1.699039 0.654184
v 0.824965 3.157748 0.376749
v 1.190133 -1.699039 1.031256
v 0.685406 3.157748 0.593908
v 0.851386 -1.699039 1.324782
v 0.490319 3.157748 0.762951
v 0.443665 -1.699039 1.510983
v 0.255509 3.157748 0.870185
v 0.000000 -1.699039 1.574772
v 0.000000 3.157748 0.906922
v -0.443665 -1.699039 1.510983
v -0.255510 3.157748 0.870185
v -0.851386 -1.699039 1.324782
v -0.490319 3.157748 0.762951
v -1.190133 -1.699039 1.031256
v -0.685406 3.157748 0.593908
v -1.432463 -1.699039 0.654184
v -0.824965 3.157748 0.376749
v -1.558743 -1.699039 0.224113
v -0.897691 3.157748 0.129068
v -1.558743 -1.699039 -0.224113
v -0.897691 3.157748 -0.129068
v -1.432463 -1.699039 -0.654184
v -0.824965 3.157748 -0.376749
v -1.190133 -1.699039 -1.031256
v -0.685406 3.157748 -0.593908
v -0.851386 -1.699039 -1.324782
v -0.490319 3.157748 -0.762951
v -0.443665 -1.699039 -1.510983
v -0.255510 3.157748 -0.870185
v 1.196402 -0.268417 0.444146
v 1.023058 1.653117 0.175871
v 1.196402 -0.268417 -0.378772
v 1.023058 1.653117 -0.110498
v 1.787475 -0.153586 0.444146
v 1.228747 1.693077 0.175871
v 1.787475 -0.153586 -0.378772
v 1.228747 1.693077 -0.110498
v 0.963865 1.518599 0.841534
v 0.963865 1.802714 0.841534
v 0.963865 1.518599 -0.704153
v 0.963865 1.802714 -0.704153
v 1.247980 1.518599 0.841534
v 1.247980 1.802714 0.841534
v 1.247980 1.518599 -0.704153
v 1.247980 1.802714 -0.704153
v -0.215036 -0.324716 -0.846126
v -0.215036 1.486888 -0.529271
v -0.215036 -0.154296 -1.820489
v -0.215036 1.657307 -1.503634
v 0.215036 -0.324716 -0.846126
v 0.215036 1.486888 -0.529271
v 0.215036 -0.154296 -1.820489
v 0.215036 1.657307 -1.503634
v -0.215036 -0.198560 1.794645
v -0.215036 1.612996 1.477517
v -0.215036 -0.369126 0.820307
v -0.215036 1.442430 0.503179
v 0.215036 -0.198560 1.794645
v 0.215036 1.612996 1.477517
v 0.215036 -0.369126 0.820307
v 0.215036 1.442430 0.503179
vn 0.1410 0.1349 -0.9808
vn 0.4116 0.1349 -0.9013
vn 0.6489 0.1349 -0.7488
vn 0.8336 0.1349 -0.5357
vn 0.9507 0.1349 -0.2792
vn 0.9909 0.1349 -0.0000
vn 0.9507 0.1349 0.2792
vn 0.8336 0.1349 0.5357
vn 0.6489 0.1349 0.7488
vn 0.4116 0.1349 0.9013
vn 0.1410 0.1349 0.9808
vn -0.1410 0.1349 0.9808
vn -0.4116 0.1349 0.9013
vn -0.6489 0.1349 0.7488
vn -0.8336 0.1349 0.5357
vn -0.9507 0.1349 0.2792
vn -0.9909 0.1349 -0.0000
vn -0.9507 0.1349 -0.2792
vn -0.8336 0.1349 -0.5357
vn -0.6489 0.1349 -0.7488
vn -0.0000 1.0000 -0.0000
vn -0.4116 0.1349 -0.9013
vn -0.1410 0.1349 -0.9808
vn -0.0000 -1.0000 -0.0000
vn -0.9960 -0.0898 -0.0000
vn -0.0264 0.1359 -0.9904
vn 0.9571 0.2896 -0.0000
vn -0.0264 0.1359 0.9904
vn 0.1907 -0.9816 -0.0000
vn -0.1907 0.9816 -0.0000
vn -1.0000 -0.0000 -0.0000
vn -0.0000 -0.0000 -1.0000
vn 1.0000 -0.0000 -0.0000
vn -0.0000 -0.0000 1.0000
vn -0.0000 0.1723 -0.9850
vn -0.0000 -0.1723 0.9850
vn -0.0000 -0.9850 -0.1723
vn -0.0000 0.9850 0.1723
vn -0.0000 -0.1724 -0.9850
vn -0.0000 0.1724 0.9850
vn -0.0000 -0.9850 0.1724
vn -0.0000 0.9850 -0.1724
vt 0.990000 0.500000
vt -0.000000 0.500000
vt 0.750000 0.490000
vt 0.990000 0.990000
vt 0.250000 0.490000
vt -0.000000 0.990000
vt 0.954545 0.500000
vt 0.817616 0.480278
vt 0.954545 0.990000
vt 0.317616 0.480278
vt 0.909091 0.500000
vt 0.879754 0.451901
vt 0.909091 0.990000
vt 0.379754 0.451901
vt 0.863636 0.500000
vt 0.931380 0.407167
vt 0.863636 0.990000
vt 0.431380 0.407167
vt 0.818182 0.500000
vt 0.968312 0.349700
vt 0.818182 0.990000
vt 0.468312 0.349700
vt 0.772727 0.500000
vt 0.987557 0.284156
vt 0.772727 0.990000
vt 0.487557 0.284156
vt 0.727273 0.500000
vt 0.987557 0.215844
vt 0.727273 0.990000
vt 0.487557 0.215844
vt 0.681818 0.500000
vt 0.968312 0.150300
vt 0.681818 0.990000
vt 0.468312 0.150300
vt 0.636364 0.500000
vt 0.931380 0.092833
vt 0.636364 0.990000
vt 0.431380 0.092833
vt 0.590909 0.500000
vt 0.879754 0.048099
vt 0.590909 0.990000
vt 0.379754 0.048099
vt 0.545454 0.500000
vt 0.817616 0.019722
vt 0.545454 0.990000
vt 0.317616 0.019722
vt 0.500000 0.500000
vt 0.750000 0.010000
vt 0.500000 0.990000
vt 0.250000 0.010000
vt 0.454545 0.500000
vt 0.682384 0.019722
vt 0.454545 0.990000
vt 0.182384 0.019722
vt 0.409091 0.500000
vt 0.620246 0.048099
vt 0.409091 0.990000
vt 0.120246 0.048099
vt 0.363636 0.500000
vt 0.568620 0.092833
vt 0.363636 0.990000
vt 0.068620 0.092833
vt 0.318182 0.500000
vt 0.531688 0.150300
vt 0.318182 0.990000
vt 0.031688 0.150300
vt 0.272727 0.500000
vt 0.512443 0.215844
vt 0.272727 0.990000
vt 0.012443 0.215844
vt 0.227272 0.500000
vt 0.512443 0.284156
vt 0.227272 0.990000
vt 0.012443 0.284156
vt 0.181818 0.500000
vt 0.531688 0.349700
vt 0.181818 0.990000
vt 0.031688 0.349700
vt 0.136363 0.500000
vt 0.568620 0.407167
vt 0.136363 0.990000
vt 0.068620 0.407167
vt 0.090909 0.500000
vt 0.620246 0.451901
vt 0.120246 0.451901
vt 0.090909 0.990000
vt 0.045454 0.500000
vt 0.682384 0.480278
vt 0.182384 0.480278
vt 0.045454 0.990000
vt 0.375000 0.000000
vt 0.375000 0.990000
vt 0.125000 0.750000
vt 0.625000 0.000000
vt 0.625000 0.990000
vt 0.875000 0.750000
vt 0.125000 0.500000
vt 0.375000 0.250000
vt 0.625000 0.250000
vt 0.875000 0.500000
vt 0.375000 0.750000
vt 0.625000 0.750000
vt 0.375000 0.500000
vt 0.625000 0.500000
vt 0.375000 0.000000
vt 0.375000 0.990000
vt 0.125000 0.750000
vt 0.625000 0.000000
vt 0.625000 0.990000
vt 0.875000 0.750000
vt 0.125000 0.500000
vt 0.375000 0.250000
vt 0.625000 0.250000
vt 0.875000 0.500000
vt 0.375000 0.750000
vt 0.625000 0.750000
vt 0.375000 0.500000
vt 0.625000 0.500000
vt 0.375000 0.000000
vt 0.375000 0.990000
vt 0.125000 0.750000
vt 0.625000 0.000000
vt 0.625000 0.990000
vt 0.875000 0.750000
vt 0.375000 0.250000
vt 0.125000 0.500000
vt 0.625000 0.250000
vt 0.875000 0.500000
vt 0.375000 0.750000
vt 0.625000 0.750000
vt 0.375000 0.500000
vt 0.625000 0.500000
vt 0.375000 0.000000
vt 0.375000 0.990000
vt 0.125000 0.750000
vt 0.625000 0.000000
vt 0.625000 0.990000
vt 0.875000 0.750000
vt 0.125000 0.500000
vt 0.375000 0.250000
vt 0.625000 0.250000
vt 0.875000 0.500000
vt 0.375000 0.750000
vt 0.625000 0.750000
vt 0.375000 0.500000
vt 0.625000 0.500000
s 0
f 2/4/1 3/7/1 1/1/1
f 4/9/2 5/11/2 3/7/2
f 6/13/3 7/15/3 5/11/3
f 8/17/4 9/19/4 7/15/4
f 10/21/5 11/23/5 9/19/5
f 12/25/6 13/27/6 11/23/6
f 14/29/7 15/31/7 13/27/7
f 16/33/8 17/35/8 15/31/8
f 18/37/9 19/39/9 17/35/9
f 20/41/10 21/43/10 19/39/10
f 22/45/11 23/47/11 21/43/11
f 24/49/12 25/51/12 23/47/12
f 26/53/13 27/55/13 25/51/13
f 28/57/14 29/59/14 27/55/14
f 30/61/15 31/63/15 29/59/15
f 32/65/16 33/67/16 31/63/16
f 34/69/17 35/71/17 33/67/17
f 36/73/18 37/75/18 35/71/18
f 38/77/19 39/79/19 37/75/19
f 40/81/20 41/83/20 39/79/20
f 42/85/21 26/54/21 10/22/21
f 42/86/22 43/87/22 41/83/22
f 43/87/23 2/6/23 1/2/23
f 7/16/24 23/48/24 39/80/24
f 46/94/25 47/98/25 45/91/25
f 47/98/26 52/104/26 51/103/26
f 52/104/27 49/101/27 51/103/27
f 50/102/28 45/92/28 49/101/28
f 51/103/29 45/93/29 47/97/29
f 48/100/30 50/102/30 52/104/30
f 54/108/31 55/112/31 53/105/31
f 56/113/32 59/117/32 55/112/32
f 60/118/33 57/115/33 59/117/33
f 58/116/34 53/106/34 57/115/34
f 59/117/24 53/107/24 55/111/24
f 56/114/21 58/116/21 60/118/21
f 61/119/31 64/127/31 63/125/31
f 64/127/35 67/131/35 63/125/35
f 68/132/33 65/129/33 67/131/33
f 66/130/36 61/120/36 65/129/36
f 67/131/37 61/121/37 63/126/37
f 64/128/38 66/130/38 68/132/38
f 70/136/31 71/140/31 69/133/31
f 72/141/39 75/145/39 71/140/39
f 75/145/33 74/144/33 73/143/33
f 74/144/40 69/134/40 73/143/40
f 75/145/41 69/135/41 71/139/41
f 72/142/42 74/144/42 76/146/42
f 2/4/1 4/9/1 3/7/1
f 4/9/2 6/13/2 5/11/2
f 6/13/3 8/17/3 7/15/3
f 8/17/4 10/21/4 9/19/4
f 10/21/5 12/25/5 11/23/5
f 12/25/6 14/29/6 13/27/6
f 14/29/7 16/33/7 15/31/7
f 16/33/8 18/37/8 17/35/8
f 18/37/9 20/41/9 19/39/9
f 20/41/10 22/45/10 21/43/10
f 22/45/11 24/49/11 23/47/11
f 24/49/12 26/53/12 25/51/12
f 26/53/13 28/57/13 27/55/13
f 28/57/14 30/61/14 29/59/14
f 30/61/15 32/65/15 31/63/15
f 32/65/16 34/69/16 33/67/16
f 34/69/17 36/73/17 35/71/17
f 36/73/18 38/77/18 37/75/18
f 38/77/19 40/81/19 39/79/19
f 40/81/20 42/86/20 41/83/20
f 6/14/21 4/10/21 2/5/21
f 2/5/21 44/89/21 42/85/21
f 42/85/21 40/82/21 34/70/21
f 40/82/21 38/78/21 34/70/21
f 38/78/21 36/74/21 34/70/21
f 34/70/21 32/66/21 30/62/21
f 30/62/21 28/58/21 26/54/21
f 26/54/21 24/50/21 22/46/21
f 22/46/21 20/42/21 26/54/21
f 20/42/21 18/38/21 26/54/21
f 18/38/21 16/34/21 14/30/21
f 14/30/21 12/26/21 10/22/21
f 10/22/21 8/18/21 6/14/21
f 6/14/21 2/5/21 10/22/21
f 2/5/21 42/85/21 10/22/21
f 34/70/21 30/62/21 42/85/21
f 30/62/21 26/54/21 42/85/21
f 18/38/21 14/30/21 26/54/21
f 14/30/21 10/22/21 26/54/21
f 42/86/22 44/90/22 43/87/22
f 43/87/23 44/90/23 2/6/23
f 43/88/24 1/3/24 7/16/24
f 1/3/24 3/8/24 7/16/24
f 3/8/24 5/12/24 7/16/24
f 7/16/24 9/20/24 11/24/24
f 11/24/24 13/28/24 15/32/24
f 15/32/24 17/36/24 23/48/24
f 17/36/24 19/40/24 23/48/24
f 19/40/24 21/44/24 23/48/24
f 23/48/24 25/52/24 27/56/24
f 27/56/24 29/60/24 31/64/24
f 31/64/24 33/68/24 39/80/24
f 33/68/24 35/72/24 39/80/24
f 35/72/24 37/76/24 39/80/24
f 39/80/24 41/84/24 43/88/24
f 7/16/24 11/24/24 23/48/24
f 11/24/24 15/32/24 23/48/24
f 23/48/24 27/56/24 39/80/24
f 27/56/24 31/64/24 39/80/24
f 39/80/24 43/88/24 7/16/24
f 46/94/25 48/99/25 47/98/25
f 47/98/26 48/99/26 52/104/26
f 52/104/27 50/102/27 49/101/27
f 50/102/28 46/95/28 45/92/28
f 51/103/29 49/101/29 45/93/29
f 48/100/30 46/96/30 50/102/30
f 54/108/31 56/113/31 55/112/31
f 56/113/32 60/118/32 59/117/32
f 60/118/33 58/116/33 57/115/33
f 58/116/34 54/109/34 53/106/34
f 59/117/24 57/115/24 53/107/24
f 56/114/21 54/110/21 58/116/21
f 61/119/31 62/122/31 64/127/31
f 64/127/35 68/132/35 67/131/35
f 68/132/33 66/130/33 65/129/33
f 66/130/36 62/123/36 61/120/36
f 67/131/37 65/129/37 61/121/37
f 64/128/38 62/124/38 66/130/38
f 70/136/31 72/141/31 71/140/31
f 72/141/39 76/146/39 75/145/39
f 75/145/33 76/146/33 74/144/33
f 74/144/40 70/137/40 69/134/40
f 75/145/41 73/143/41 69/135/41
f 72/142/42 70/138/42 74/144/42
